<?xml version="1.0" standalone="no"?>
<!DOCTYPE svg PUBLIC "-//W3C//DTD SVG 20010904//EN"
 "http://www.w3.org/TR/2001/REC-SVG-20010904/DTD/svg10.dtd">
<svg version="1.0" xmlns="http://www.w3.org/2000/svg"
 width="700.000000pt" height="700.000000pt" viewBox="0 0 700.000000 700.000000"
 preserveAspectRatio="xMidYMid meet">
<metadata>
Created by potrace 1.14, written by Peter Selinger 2001-2017
</metadata>
<g transform="translate(0.000000,700.000000) scale(0.100000,-0.100000)"
fill="#000000" stroke="none">
<path d="M1225 6986 c-315 -58 -579 -198 -805 -426 -189 -191 -318 -421 -387
-696 l-28 -109 0 -2255 0 -2255 28 -110 c139 -552 550 -963 1102 -1102 l110
-28 2255 0 2255 0 109 28 c275 69 507 199 696 387 206 204 336 434 407 715
l28 110 0 2255 0 2255 -28 110 c-69 275 -199 506 -397 706 -188 190 -411 317
-690 393 l-115 31 -2235 2 c-1782 1 -2249 -1 -2305 -11z m3485 -1096 l0 -360
-1297 -2 c-1464 -4 -1333 4 -1513 -85 -82 -40 -109 -60 -196 -147 -87 -87
-107 -114 -147 -196 -89 -180 -82 -47 -82 -1600 0 -1553 -7 -1420 82 -1600 40
-82 60 -109 147 -196 87 -87 114 -107 196 -147 173 -85 128 -81 898 -85 l682
-3 0 -359 0 -360 -984 0 c-1080 0 -1083 0 -1233 60 -205 82 -371 248 -453 453
-63 157 -60 53 -60 2237 0 2184 -3 2080 60 2237 82 205 248 371 452 452 64 26
122 40 218 55 14 2 746 4 1628 5 l1602 1 0 -360z m852 349 c349 -54 623 -328
677 -677 15 -99 15 -4025 0 -4124 -54 -349 -328 -623 -677 -677 -48 -7 -394
-11 -1056 -11 l-986 0 0 360 0 360 643 0 c696 1 730 3 862 55 195 77 366 244
446 435 57 135 59 168 59 1026 l0 784 -1285 0 -1285 0 0 -380 0 -380 900 0
900 0 -2 -387 -3 -388 -1260 0 -1260 0 0 1265 0 1265 1260 0 1260 0 5 -175 5
-175 380 0 380 0 3 189 c4 277 -21 394 -115 549 -46 76 -167 200 -248 252 -83
55 -215 102 -323 116 l-92 13 0 358 0 358 371 0 c218 0 399 -4 441 -11z"/>
</g>
</svg>
