<?xml version="1.0" encoding="utf-8"?>
<!-- Generator: Adobe Illustrator 23.0.2, SVG Export Plug-In . SVG Version: 6.00 Build 0)  -->
<svg version="1.0" id="Capa_1" xmlns="http://www.w3.org/2000/svg" xmlns:xlink="http://www.w3.org/1999/xlink" x="0px" y="0px"
	 viewBox="0 0 570.68 154.38" style="enable-background:new 0 0 570.68 154.38;" xml:space="preserve">
<style type="text/css">
	.st0{fill:#FFFFFF;stroke:#000000;stroke-width:3;stroke-linecap:round;stroke-linejoin:round;}
</style>
<g>
	<g>
		<polygon class="st0" points="171.19,152.71 171.19,46.41 149.86,46.41 149.86,1.82 214.44,1.82 214.44,152.71 		"/>
		<path class="st0" d="M1.91,86.95c0,21.92,0,43.84,0,65.75c46.24,0,92.48,0,138.72,0c0-14.93,0-29.87,0-44.8
			c-31.58,0-63.17,0-94.75,0c0-2.77,0-5.55,0-8.32c20.71,0,41.42,0,62.12,0c17.79,0,32.21-14.42,32.21-32.21
			c0-11.11,0-22.22,0-33.34c0-17.79-14.42-32.21-32.21-32.21c-24.63,0-49.25,0-73.88,0c-17.79,0-32.21,14.42-32.21,32.21
			c0,6.75,0,13.5,0,20.25c14.66,0,29.31,0,43.97,0c0-2.62,0-5.25,0-7.87c16.82,0,33.64,0,50.47,0c0,2.78,0,5.55,0,8.33
			c-20.74,0-41.48,0-62.22,0C16.33,54.74,1.91,69.16,1.91,86.95z"/>
		<path class="st0" d="M330.76,54.74c17.79,0,32.21,14.42,32.21,32.21c0,11.18,0,22.36,0,33.54c0,17.79-14.42,32.21-32.21,32.21
			c-24.82,0-49.64,0-74.46,0c-17.79,0-32.21-14.42-32.21-32.21c0-6.8,0-13.6,0-20.4c15.01,0,30.02,0,45.02,0c0,2.6,0,5.21,0,7.81
			c16.29,0,32.57,0,48.86,0c0-2.77,0-5.55,0-8.32c-20.56,0-41.11,0-61.67,0c-17.79,0-32.21-14.42-32.21-32.21
			c0-21.85,0-43.7,0-65.55c46.4,0,92.8,0,139.19,0c0,14.86,0,29.73,0,44.59c-31.39,0-62.78,0-94.17,0c0,2.78,0,5.55,0,8.33
			C289.66,54.74,310.21,54.74,330.76,54.74z"/>
		<path d="M330.76,64.13c12.61,0,22.82,10.22,22.82,22.82c0,11.18,0,22.36,0,33.54c0,12.61-10.22,22.82-22.82,22.82
			c-24.82,0-49.64,0-74.46,0c-12.61,0-22.82-10.22-22.82-22.82c0-3.67,0-7.34,0-11.02c8.75,0,17.5,0,26.25,0c0,2.6,0,5.21,0,7.81
			c22.54,0,45.09,0,67.63,0c0-9.03,0-18.06,0-27.09c-23.69,0-47.37,0-71.06,0c-12.61,0-22.82-10.22-22.82-22.82
			c0-18.72,0-37.44,0-56.16c40.14,0,80.28,0,120.42,0c0,8.61,0,17.21,0,25.82c-31.39,0-62.78,0-94.17,0c0,9.03,0,18.07,0,27.1
			C283.4,64.13,307.08,64.13,330.76,64.13z"/>
		<polygon points="180.57,143.32 180.57,37.03 159.25,37.03 159.25,11.21 205.05,11.21 205.05,143.32 		"/>
		<path d="M11.3,86.95c0,18.79,0,37.58,0,56.37c39.98,0,79.97,0,119.95,0c0-8.68,0-17.35,0-26.03c-31.58,0-63.17,0-94.75,0
			c0-9.03,0-18.06,0-27.09c23.84,0,47.67,0,71.51,0c12.61,0,22.82-10.22,22.82-22.82c0-11.11,0-22.22,0-33.34
			c0-12.61-10.22-22.82-22.82-22.82c-24.63,0-49.25,0-73.88,0c-12.61,0-22.82,10.22-22.82,22.82c0,3.62,0,7.24,0,10.87
			c8.4,0,16.8,0,25.2,0c0-2.62,0-5.25,0-7.87c23.08,0,46.16,0,69.24,0c0,9.03,0,18.07,0,27.1c-23.87,0-47.74,0-71.61,0
			C21.52,64.13,11.3,74.35,11.3,86.95z"/>
	</g>
	<g>
		<polygon class="st0" points="396.62,54.15 396.62,100.39 428.09,100.39 428.09,131.84 474.35,131.84 474.35,68.94 491.04,68.94 
			491.04,131.84 568.78,131.84 568.78,85.61 537.3,85.61 537.3,22.7 428.09,22.7 428.09,54.15 		"/>
		<polygon points="404.01,61.55 404.01,93 435.48,93 435.48,124.45 466.96,124.45 466.96,61.55 498.43,61.55 498.43,124.45 
			561.38,124.45 561.38,93 529.91,93 529.91,30.09 435.48,30.09 435.48,61.55 		"/>
	</g>
</g>
</svg>
