<?xml version="1.0" encoding="utf-8"?>
<!-- Generator: Adobe Illustrator 23.0.2, SVG Export Plug-In . SVG Version: 6.00 Build 0)  -->
<svg version="1.0" id="Capa_1" xmlns="http://www.w3.org/2000/svg" xmlns:xlink="http://www.w3.org/1999/xlink" x="0px" y="0px"
	 viewBox="0 0 464.65 150.88" style="enable-background:new 0 0 464.65 150.88;" xml:space="preserve">
<style type="text/css">
	.st0{fill:#FFFFFF;}
	.st1{fill:none;stroke:#000000;stroke-width:3;stroke-linecap:round;stroke-linejoin:round;}
</style>
<g>
	<path class="st0" d="M133.37,126.42c-5.63,12.94-18.39,21.32-32.5,21.32H37.62c-9.39,0-18.41-3.74-25.05-10.38
		c-6.65-6.65-10.39-15.67-10.39-25.07V97h42.8v8.06h48.58V95.5H37.62c-9.39,0-18.41-3.74-25.05-10.38S2.18,69.45,2.18,60.04V37.42
		c0-9.39,3.74-18.42,10.38-25.06C19.21,5.71,28.22,1.99,37.61,1.99h63.27c14.11,0,26.87,8.36,32.5,21.31"/>
	<path class="st1" d="M133.37,126.42c-5.63,12.94-18.39,21.32-32.5,21.32H37.62c-9.39,0-18.41-3.74-25.05-10.38
		c-6.65-6.65-10.39-15.67-10.39-25.07V97h42.8v8.06h48.58V95.5H37.62c-9.39,0-18.41-3.74-25.05-10.38S2.18,69.45,2.18,60.04V37.42
		c0-9.39,3.74-18.42,10.38-25.06C19.21,5.71,28.22,1.99,37.61,1.99h63.27c14.11,0,26.87,8.36,32.5,21.31"/>
	<path class="st0" d="M133.37,126.42c5.63,12.94,18.39,21.32,32.5,21.32h63.26c9.39,0,18.41-3.74,25.05-10.38
		c6.65-6.65,10.37-15.66,10.37-25.06V37.44c0-9.39-3.73-18.42-10.37-25.06c-6.65-6.65-15.66-10.37-25.05-10.37h-63.26
		c-14.11,0-26.87,8.36-32.5,21.31"/>
	<path class="st1" d="M133.37,126.42c5.63,12.94,18.39,21.32,32.5,21.32h63.26c9.39,0,18.41-3.74,25.05-10.38
		c6.65-6.65,10.37-15.66,10.37-25.06V37.44c0-9.39-3.73-18.42-10.37-25.06c-6.65-6.65-15.66-10.37-25.05-10.37h-63.26
		c-14.11,0-26.87,8.36-32.5,21.31"/>
	<path d="M35.93,35.79h66.83v26.15H35.93V35.79z M127.25,112.29V37.43c0-14.56-11.81-26.37-26.37-26.37H37.62
		c-14.57,0-26.37,11.81-26.37,26.37v22.62c0,14.57,11.8,26.38,26.37,26.38h65.01v27.7h-66.7v-8.06H11.25v6.23
		c0,14.57,11.8,26.38,26.37,26.38h63.25C115.43,138.67,127.25,126.86,127.25,112.29"/>
	<path d="M164.12,35.67h66.77v78.37h-66.77V35.67z M229.13,11.05h-63.25c-14.57,0-26.38,11.81-26.38,26.37v74.86
		c0,14.57,11.81,26.38,26.38,26.38h63.25c14.56,0,26.38-11.81,26.38-26.38V37.42C255.51,22.87,243.69,11.05,229.13,11.05"/>
	<polygon class="st0" points="296.77,52.53 296.77,97.19 327.17,97.19 327.17,127.56 371.85,127.56 371.85,66.81 387.97,66.81 
		387.97,127.56 463.05,127.56 463.05,82.91 432.65,82.91 432.65,22.15 327.17,22.15 327.17,52.53 	"/>
	<polygon class="st1" points="296.77,52.53 296.77,97.19 327.17,97.19 327.17,127.56 371.85,127.56 371.85,66.81 387.97,66.81 
		387.97,127.56 463.05,127.56 463.05,82.91 432.65,82.91 432.65,22.15 327.17,22.15 327.17,52.53 	"/>
	<polygon points="303.9,59.67 303.9,90.05 334.3,90.05 334.3,120.43 364.7,120.43 364.7,59.67 395.1,59.67 395.1,120.43 
		455.9,120.43 455.9,90.05 425.5,90.05 425.5,29.29 334.3,29.29 334.3,59.67 	"/>
</g>
</svg>
