<?xml version="1.0" encoding="utf-8"?>
<!-- Generator: Adobe Illustrator 23.0.2, SVG Export Plug-In . SVG Version: 6.00 Build 0)  -->
<svg version="1.1" id="Capa_1" xmlns="http://www.w3.org/2000/svg" xmlns:xlink="http://www.w3.org/1999/xlink" x="0px" y="0px"
	 viewBox="0 0 460.87 460.87" style="enable-background:new 0 0 460.87 460.87;" xml:space="preserve">
<style type="text/css">
	.st0{fill:#F77171;}
	.st1{fill:#54BCD7;}
	.st2{stroke:#000000;stroke-linecap:round;stroke-linejoin:round;}
	.st3{fill:none;stroke:#000000;stroke-width:2;stroke-miterlimit:10;}
</style>
<g>
	<path class="st0" d="M148.85,97.5c-14.27,0-26.43,5.03-36.37,14.97c-10,10-14.97,22.11-14.97,36.37c0,27.2,0,54.39,0,81.59
		c-16.25,0-32.5,0-48.75,0c0-42.54,0-85.09,0-127.63c0-14.33,5.69-28.08,15.83-38.22c10.14-10.14,23.88-15.83,38.22-15.83
		c69.63,0,139.26,0,208.9,0c0,16.25,0,32.5,0,48.75C257.41,97.5,203.13,97.5,148.85,97.5z"/>
	<path class="st0" d="M148.85,363.36c-14.27,0-26.38-4.97-36.37-14.97c-9.94-9.94-14.97-22.11-14.97-36.37c0-27.2,0-54.39,0-81.59
		c-16.25,0-32.5,0-48.75,0c0,42.54,0,85.09,0,127.63c0,14.33,5.69,28.08,15.83,38.22c10.14,10.14,23.88,15.83,38.22,15.83
		c42.54,0,85.09,0,127.63,0c-0.05-16.25-0.11-32.5-0.16-48.75C203.13,363.36,175.99,363.36,148.85,363.36z"/>
</g>
<g>
	<path class="st1" d="M363.36,312.02c0,14.27-5.03,26.38-15.13,36.37c-10.11,9.94-22.27,14.97-36.54,14.97c-27.14,0-54.28,0-81.42,0
		c0.05,16.25,0.11,32.5,0.16,48.75c42.54,0,85.09,0,127.63,0c14.33,0,28.08-5.69,38.22-15.83c10.14-10.14,15.83-23.88,15.83-38.22
		c0-42.54,0-85.09,0-127.63c0-5.79,0-11.58,0-17.38c-16.25,0-32.5,0-48.75,0C363.36,246.04,363.36,279.03,363.36,312.02z"/>
	<path class="st1" d="M311.69,97.5c14.27,0,26.48,4.97,36.54,14.97c10.11,9.94,15.13,22.11,15.13,36.37c0,6.9,0,13.8,0,20.7
		c-16.38,0-32.75,0-49.13,0c0-6.9,0-13.8,0-20.7c0-1.73-0.86-2.59-2.59-2.59c-54.26,0-108.53,0-162.79,0
		c-1.73,0-2.59,0.86-2.59,2.59c0,54.39,0,108.78,0,163.17c0,1.73,0.86,2.59,2.59,2.59c54.28,0,108.56,0,162.85,0
		c1.73,0,2.59-0.86,2.59-2.59c0-16.74,0-33.47,0-50.21c-20.07,0-40.14,0-60.21,0c-19.57,0-39.13,0-58.7,0c0-16.25,0-32.5,0-48.75
		c19.57,0,39.13,0,58.7,0c36.43,0,72.86,0,109.28,0c16.25,0,32.5,0,48.75,0c0-36.75,0-73.51,0-110.26
		c0-14.33-5.69-28.08-15.83-38.22c-10.14-10.14-23.88-15.83-38.22-15.83c-15.46,0-30.92,0-46.37,0
		C311.69,65,311.69,81.25,311.69,97.5z"/>
</g>
<path class="st2" d="M358.07,412.12c-85.09,0-170.18,0-255.27,0c-14.33,0-28.08-5.69-38.22-15.83
	c-10.14-10.14-15.83-23.88-15.83-38.22c0-42.54,0-85.09,0-127.63c0-42.54,0-85.09,0-127.63c0-14.33,5.69-28.08,15.83-38.22
	c10.14-10.14,23.88-15.83,38.22-15.83c85.09,0,170.18,0,255.27,0c14.33,0,28.08,5.69,38.22,15.83
	c10.14,10.14,15.83,23.88,15.83,38.22c0,42.54,0,85.09,0,127.63c0,42.54,0,85.09,0,127.63c0,14.33-5.69,28.08-15.83,38.22
	C386.15,406.42,372.4,412.12,358.07,412.12z M432.34,432.34c18.26-18.27,28.53-43.04,28.53-68.87c0-88.69,0-177.39,0-266.08
	c0-25.83-10.26-50.6-28.53-68.87C414.08,10.26,389.3,0,363.47,0C274.78,0,186.09,0,97.39,0c-25.83,0-50.6,10.26-68.87,28.53
	C10.26,46.79,0,71.56,0,97.39c0,88.69,0,177.39,0,266.08c0,25.83,10.26,50.6,28.53,68.87c18.26,18.26,43.04,28.53,68.87,28.53
	c88.69,0,177.39,0,266.08,0C389.3,460.87,414.08,450.61,432.34,432.34z"/>
<path class="st2" d="M363.36,312.02c0,14.27-5.03,26.38-15.13,36.37c-10.11,9.94-22.27,14.97-36.54,14.97
	c-54.28,0-108.56,0-162.85,0c-14.27,0-26.38-4.97-36.37-14.97c-9.94-9.94-14.97-22.11-14.97-36.37c0-54.39,0-108.78,0-163.17
	c0-14.27,4.97-26.38,14.97-36.37c9.94-9.94,22.11-14.97,36.37-14.97c54.28,0,108.56,0,162.85,0c14.27,0,26.48,4.97,36.54,14.97
	c10.11,9.94,15.13,22.11,15.13,36.37c0,6.9,0,13.8,0,20.7c-16.38,0-32.75,0-49.13,0c0-6.9,0-13.8,0-20.7c0-1.73-0.86-2.59-2.59-2.59
	c-54.26,0-108.53,0-162.79,0c-1.73,0-2.59,0.86-2.59,2.59c0,54.39,0,108.78,0,163.17c0,1.73,0.86,2.59,2.59,2.59
	c54.28,0,108.56,0,162.85,0c1.73,0,2.59-0.86,2.59-2.59c0-16.74,0-33.47,0-50.21c-20.07,0-40.14,0-60.21,0c-19.57,0-39.13,0-58.7,0
	c0-16.25,0-32.5,0-48.75c19.57,0,39.13,0,58.7,0c36.43,0,72.86,0,109.28,0C363.36,246.04,363.36,279.03,363.36,312.02z"/>
<line class="st3" x1="311.69" y1="48.75" x2="311.69" y2="97.5"/>
<line class="st3" x1="230.27" y1="363.36" x2="230.27" y2="412.12"/>
</svg>
