<?xml version="1.0" encoding="utf-8"?>
<!-- Generator: Adobe Illustrator 23.0.2, SVG Export Plug-In . SVG Version: 6.00 Build 0)  -->
<svg version="1.0" id="Capa_1" xmlns="http://www.w3.org/2000/svg" xmlns:xlink="http://www.w3.org/1999/xlink" x="0px" y="0px"
	 viewBox="0 0 460.87 460.87" style="enable-background:new 0 0 460.87 460.87;" xml:space="preserve">
<style type="text/css">
	.st0{fill:#FFFFFF;}
	.st1{fill:none;stroke:#000000;stroke-width:0.5;stroke-linecap:round;stroke-linejoin:round;}
</style>
<g>
	<g>
		<path class="st0" d="M460,234.65c-0.03-0.14-0.06-0.29-0.09-0.43c-0.01-0.05-0.02-0.09-0.03-0.14c-0.02-0.09-0.05-0.19-0.07-0.28
			c-0.05-0.18-0.12-0.37-0.19-0.54c-0.14-0.35-0.31-0.69-0.52-1.01c-0.4-0.63-0.92-1.19-1.51-1.63c-0.61-0.45-1.3-0.79-2.03-1
			c-0.09-0.03-0.19-0.05-0.28-0.07c-0.15-0.03-0.3-0.06-0.46-0.09c-0.15-0.03-0.31-0.06-0.46-0.09c-0.45-0.09-0.9-0.17-1.36-0.24
			c-0.45-0.07-0.91-0.14-1.36-0.19c-1.82-0.23-3.66-0.34-5.5-0.35c-1.84,0-3.67,0.11-5.5,0.33c-0.46,0.06-0.91,0.12-1.37,0.19
			c-0.46,0.07-0.91,0.15-1.36,0.23c-0.17,0.03-0.34,0.07-0.51,0.1c-0.17,0.03-0.34,0.07-0.51,0.11c-0.09,0.02-0.19,0.04-0.28,0.07
			c-0.37,0.1-0.72,0.23-1.06,0.4c-0.34,0.17-0.67,0.36-0.97,0.59c-0.3,0.22-0.58,0.47-0.83,0.74c-0.25,0.27-0.48,0.57-0.69,0.88
			c-0.1,0.16-0.2,0.32-0.28,0.49c-0.09,0.17-0.17,0.34-0.24,0.51c-0.14,0.36-0.26,0.73-0.33,1.1c-0.13,0.66-0.26,1.31-0.36,1.98
			c-0.11,0.64-0.19,1.28-0.27,1.92c-0.15,1.28-0.24,2.57-0.28,3.87c-0.07,2.58,0.08,5.16,0.45,7.71c0.09,0.63,0.2,1.26,0.32,1.89
			c0.05,0.27,0.1,0.53,0.16,0.8c0.02,0.07,0.03,0.13,0.05,0.2c0.07,0.26,0.15,0.52,0.25,0.77c0.19,0.49,0.45,0.96,0.76,1.38
			c0.31,0.42,0.67,0.8,1.08,1.13c0.41,0.33,0.86,0.61,1.34,0.83c0.24,0.11,0.49,0.21,0.75,0.28c0.13,0.04,0.26,0.07,0.39,0.11
			c0.09,0.02,0.18,0.04,0.27,0.06c0.37,0.07,0.73,0.15,1.1,0.21c2.54,0.46,5.13,0.7,7.71,0.71c2.58,0.01,5.17-0.21,7.72-0.65
			c0.32-0.06,0.64-0.12,0.96-0.18c0.11-0.02,0.22-0.04,0.33-0.07c0.11-0.02,0.22-0.04,0.32-0.07c0.13-0.03,0.26-0.06,0.39-0.1
			c0.13-0.04,0.25-0.08,0.38-0.13c0.13-0.05,0.25-0.1,0.37-0.15c0.24-0.11,0.47-0.23,0.7-0.36c0.22-0.14,0.44-0.29,0.65-0.45
			c0.41-0.33,0.78-0.7,1.09-1.12c0.32-0.42,0.58-0.89,0.78-1.37c0.1-0.25,0.19-0.51,0.25-0.77c0.02-0.07,0.03-0.13,0.05-0.2
			c0.02-0.1,0.04-0.21,0.06-0.31c0.02-0.1,0.04-0.21,0.06-0.31c0.12-0.63,0.23-1.26,0.33-1.89c0.19-1.28,0.33-2.56,0.42-3.85
			c0.08-1.29,0.11-2.58,0.08-3.87c-0.03-1.29-0.12-2.57-0.26-3.85C460.46,237.19,460.26,235.91,460,234.65"/>
		<path class="st1" d="M460,234.65c-0.03-0.14-0.06-0.29-0.09-0.43c-0.01-0.05-0.02-0.09-0.03-0.14c-0.02-0.09-0.05-0.19-0.07-0.28
			c-0.05-0.18-0.12-0.37-0.19-0.54c-0.14-0.35-0.31-0.69-0.52-1.01c-0.4-0.63-0.92-1.19-1.51-1.63c-0.61-0.45-1.3-0.79-2.03-1
			c-0.09-0.03-0.19-0.05-0.28-0.07c-0.15-0.03-0.3-0.06-0.46-0.09c-0.15-0.03-0.31-0.06-0.46-0.09c-0.45-0.09-0.9-0.17-1.36-0.24
			c-0.45-0.07-0.91-0.14-1.36-0.19c-1.82-0.23-3.66-0.34-5.5-0.35c-1.84,0-3.67,0.11-5.5,0.33c-0.46,0.06-0.91,0.12-1.37,0.19
			c-0.46,0.07-0.91,0.15-1.36,0.23c-0.17,0.03-0.34,0.07-0.51,0.1c-0.17,0.03-0.34,0.07-0.51,0.11c-0.09,0.02-0.19,0.04-0.28,0.07
			c-0.37,0.1-0.72,0.23-1.06,0.4c-0.34,0.17-0.67,0.36-0.97,0.59c-0.3,0.22-0.58,0.47-0.83,0.74c-0.25,0.27-0.48,0.57-0.69,0.88
			c-0.1,0.16-0.2,0.32-0.28,0.49c-0.09,0.17-0.17,0.34-0.24,0.51c-0.14,0.36-0.26,0.73-0.33,1.1c-0.13,0.66-0.26,1.31-0.36,1.98
			c-0.11,0.64-0.19,1.28-0.27,1.92c-0.15,1.28-0.24,2.57-0.28,3.87c-0.07,2.58,0.08,5.16,0.45,7.71c0.09,0.63,0.2,1.26,0.32,1.89
			c0.05,0.27,0.1,0.53,0.16,0.8c0.02,0.07,0.03,0.13,0.05,0.2c0.07,0.26,0.15,0.52,0.25,0.77c0.19,0.49,0.45,0.96,0.76,1.38
			c0.31,0.42,0.67,0.8,1.08,1.13c0.41,0.33,0.86,0.61,1.34,0.83c0.24,0.11,0.49,0.21,0.75,0.28c0.13,0.04,0.26,0.07,0.39,0.11
			c0.09,0.02,0.18,0.04,0.27,0.06c0.37,0.07,0.73,0.15,1.1,0.21c2.54,0.46,5.13,0.7,7.71,0.71c2.58,0.01,5.17-0.21,7.72-0.65
			c0.32-0.06,0.64-0.12,0.96-0.18c0.11-0.02,0.22-0.04,0.33-0.07c0.11-0.02,0.22-0.04,0.32-0.07c0.13-0.03,0.26-0.06,0.39-0.1
			c0.13-0.04,0.25-0.08,0.38-0.13c0.13-0.05,0.25-0.1,0.37-0.15c0.24-0.11,0.47-0.23,0.7-0.36c0.22-0.14,0.44-0.29,0.65-0.45
			c0.41-0.33,0.78-0.7,1.09-1.12c0.32-0.42,0.58-0.89,0.78-1.37c0.1-0.25,0.19-0.51,0.25-0.77c0.02-0.07,0.03-0.13,0.05-0.2
			c0.02-0.1,0.04-0.21,0.06-0.31c0.02-0.1,0.04-0.21,0.06-0.31c0.12-0.63,0.23-1.26,0.33-1.89c0.19-1.28,0.33-2.56,0.42-3.85
			c0.08-1.29,0.11-2.58,0.08-3.87c-0.03-1.29-0.12-2.57-0.26-3.85C460.46,237.19,460.26,235.91,460,234.65z"/>
		<path d="M450.28,245.21c-0.55,0.08-1.1,0.14-1.66,0.19c0.99,1.53,1.97,3.05,2.96,4.58c-0.88,0.14-1.77,0.23-2.66,0.3
			c-1.03-1.59-2.05-3.18-3.08-4.76c-1.05-0.01-2.15-0.08-3.17-0.19c0.06,1.64,0.24,3.28,0.57,4.89c0,0.01,0,0.03,0,0.04
			c-0.83-0.07-1.66-0.17-2.48-0.3c-0.33-1.88-0.51-3.8-0.51-5.71c0-2.16,0.22-4.33,0.64-6.44c0.02-0.09,0.04-0.18,0.05-0.27
			c0-0.01,0.01-0.02,0.01-0.03c0.01-0.04,0.03-0.09,0.04-0.13c0.01-0.03,0.02-0.07,0.03-0.1c0.02-0.04,0.04-0.07,0.06-0.11
			c0.02-0.03,0.04-0.06,0.05-0.09c0.03-0.04,0.06-0.07,0.08-0.1c0.02-0.02,0.04-0.05,0.06-0.07c0.04-0.03,0.08-0.06,0.11-0.09
			c0.02-0.02,0.04-0.03,0.07-0.05c0.04-0.03,0.08-0.05,0.13-0.07c0.03-0.01,0.05-0.03,0.08-0.04c0.04-0.02,0.08-0.03,0.12-0.04
			c0.03-0.01,0.07-0.02,0.11-0.03c0.01,0,0.02-0.01,0.03-0.01c2.72-0.41,5.62-0.41,8.34,0c0.05,0.01,0.11,0.02,0.17,0.03
			c0.47,0.07,0.86,0.41,0.98,0.87c0.01,0.04,0.02,0.08,0.03,0.13c0.29,1.08,0.44,2.18,0.44,3.29c0,1.1-0.15,2.21-0.44,3.29
			c-0.01,0.04-0.02,0.09-0.03,0.13c-0.12,0.46-0.51,0.8-0.98,0.87C450.39,245.2,450.34,245.21,450.28,245.21 M449.51,240.91
			c0-0.68-0.07-1.36-0.21-2.03c-2.02-0.25-4.13-0.24-6.16-0.01c-0.24,1.33-0.4,2.69-0.46,4.05c1.08,0.13,2.29,0.21,3.43,0.21
			c1.07,0,2.14-0.07,3.19-0.2C449.44,242.26,449.51,241.58,449.51,240.91"/>
		<path d="M457.83,243.37c0,3.15-0.31,6.31-0.93,9.38l-0.08,0.39c-0.1,0.49-0.48,0.87-0.97,0.97c-0.13,0.03-0.26,0.05-0.39,0.08
			c-3.07,0.62-6.23,0.93-9.38,0.93s-6.31-0.31-9.38-0.93c-0.13-0.03-0.26-0.05-0.39-0.08c-0.49-0.1-0.87-0.48-0.97-0.97l-0.08-0.39
			c-0.62-3.07-0.93-6.23-0.93-9.38c0-3.15,0.31-6.31,0.93-9.38c0.03-0.13,0.05-0.26,0.08-0.39c0.1-0.49,0.49-0.88,0.98-0.97
			c0.13-0.03,0.26-0.05,0.39-0.08c6.11-1.23,12.64-1.23,18.76,0c0.13,0.03,0.26,0.05,0.39,0.08c0.49,0.1,0.87,0.48,0.97,0.97
			c0.03,0.13,0.05,0.26,0.08,0.39C457.52,237.06,457.83,240.22,457.83,243.37 M455.63,243.37c0-2.93-0.28-5.86-0.83-8.73
			c-5.7-1.09-11.76-1.09-17.46,0c-0.55,2.86-0.83,5.8-0.83,8.73c0,2.93,0.28,5.86,0.83,8.73c5.73,1.1,11.73,1.1,17.46,0
			C455.36,249.23,455.63,246.3,455.63,243.37"/>
	</g>
	<g>
		<path class="st0" d="M240.66,254.66c-0.25,0.25-0.51,0.48-0.78,0.71c-0.32,0.27-0.66,0.52-1,0.76c-0.69,0.47-1.44,0.88-2.21,1.2
			c-0.78,0.32-1.59,0.57-2.42,0.73c-0.83,0.16-1.67,0.24-2.51,0.24H212.7c-0.85,0-1.69-0.07-2.52-0.23
			c-0.83-0.16-1.65-0.4-2.43-0.72c-0.78-0.32-1.53-0.73-2.23-1.21c-0.35-0.24-0.68-0.49-1.01-0.77c-0.32-0.27-0.63-0.56-0.93-0.86
			c-0.29-0.3-0.57-0.61-0.84-0.93c-0.27-0.32-0.52-0.66-0.75-1c-0.47-0.7-0.87-1.44-1.18-2.21c-0.32-0.78-0.56-1.59-0.71-2.41
			c-0.16-0.82-0.23-1.66-0.23-2.5v-5.1c-0.32,0.26-0.65,0.51-0.99,0.75c-0.7,0.48-1.45,0.89-2.24,1.21
			c-0.78,0.32-1.6,0.57-2.44,0.73c-0.83,0.16-1.68,0.23-2.52,0.23c-7.6,0.02-15.19,0.04-22.79,0.05v14.96h-16.93v-52.6h39.71
			c0.85,0,1.7,0.07,2.53,0.23c0.83,0.16,1.65,0.4,2.44,0.73c0.79,0.32,1.54,0.73,2.24,1.21c0.35,0.24,0.69,0.5,1.02,0.77
			c0.33,0.27,0.64,0.56,0.94,0.86c0.3,0.3,0.58,0.61,0.85,0.93c0.27,0.32,0.53,0.66,0.76,1.01c0.48,0.7,0.88,1.44,1.21,2.22
			c0.07,0.16,0.13,0.32,0.19,0.48h12.88v27.3h10.98v-22.85v-4.45h4.44h12.42h40.8h36.64v-11.54h16.93v38.85h3.92v-14.46
			c0-0.84,0.07-1.68,0.23-2.51c0.16-0.83,0.4-1.64,0.72-2.42c0.32-0.78,0.73-1.52,1.21-2.22c0.24-0.35,0.49-0.68,0.76-1
			c0.27-0.32,0.55-0.63,0.85-0.93c0.3-0.3,0.6-0.58,0.93-0.85c0.32-0.27,0.66-0.52,1-0.76c0.7-0.47,1.44-0.88,2.21-1.2
			c0.78-0.32,1.59-0.57,2.42-0.73c0.83-0.16,1.67-0.24,2.51-0.24h19.03c0.84,0,1.68,0.07,2.51,0.23c0.83,0.16,1.64,0.4,2.42,0.72
			c0.78,0.32,1.52,0.73,2.22,1.2c0.35,0.24,0.68,0.49,1,0.76c0.32,0.27,0.63,0.56,0.93,0.85c0.29,0.3,0.58,0.6,0.85,0.93
			c0.27,0.32,0.52,0.66,0.76,1c0.05,0.07,0.09,0.14,0.14,0.21c0.05-0.07,0.09-0.14,0.14-0.21c0.24-0.35,0.49-0.68,0.76-1
			c0.27-0.32,0.56-0.63,0.85-0.93c0.3-0.3,0.6-0.58,0.93-0.85c0.32-0.27,0.66-0.52,1-0.76c0.69-0.47,1.44-0.88,2.21-1.2
			c0.78-0.32,1.59-0.57,2.42-0.73c0.83-0.16,1.67-0.24,2.51-0.24h19.03c0.85,0,1.69,0.07,2.52,0.23c0.83,0.16,1.65,0.4,2.43,0.72
			c0.78,0.32,1.53,0.73,2.23,1.21c0.35,0.24,0.68,0.49,1.01,0.77c0.32,0.27,0.63,0.56,0.93,0.86c0.29,0.3,0.57,0.61,0.84,0.93
			c0.27,0.32,0.52,0.66,0.75,1.01c0.47,0.7,0.87,1.44,1.19,2.21c0.32,0.78,0.56,1.58,0.71,2.41c0.16,0.82,0.23,1.66,0.23,2.49v5.97
			h-2.51c0.13,0.18,0.26,0.35,0.38,0.54c0.47,0.7,0.87,1.44,1.18,2.21c0.32,0.78,0.56,1.58,0.71,2.41c0.16,0.82,0.23,1.66,0.23,2.5
			v4.86c0,0.84-0.07,1.67-0.23,2.5c-0.16,0.82-0.39,1.63-0.71,2.41c-0.32,0.78-0.72,1.52-1.18,2.21c-0.47,0.69-1,1.34-1.59,1.94
			c-0.59,0.6-1.24,1.14-1.94,1.62c-0.7,0.48-1.45,0.88-2.23,1.21c-0.78,0.32-1.6,0.57-2.43,0.72c-0.83,0.16-1.68,0.23-2.53,0.23
			h-19.03c-0.84,0-1.68-0.07-2.51-0.23c-0.83-0.16-1.64-0.4-2.42-0.72c-0.78-0.32-1.52-0.73-2.22-1.21c-0.35-0.24-0.68-0.49-1-0.76
			c-0.22-0.19-0.44-0.38-0.65-0.58v3.5h-31.87c-0.84,0-1.68-0.07-2.51-0.23c-0.83-0.16-1.64-0.4-2.42-0.72
			c-0.78-0.32-1.52-0.73-2.22-1.21c-0.35-0.24-0.68-0.49-1-0.76c-0.32-0.27-0.63-0.55-0.93-0.85c-0.07-0.07-0.14-0.14-0.21-0.22
			v3.99h-11.56c-0.84,0-1.68-0.07-2.51-0.23c-0.83-0.16-1.64-0.4-2.42-0.72c-0.78-0.32-1.52-0.73-2.22-1.21
			c-0.59-0.4-1.14-0.85-1.66-1.34v3.49h-40.68h-44.72V254.66z"/>
		<path class="st1" d="M240.66,254.66c-0.25,0.25-0.51,0.48-0.78,0.71c-0.32,0.27-0.66,0.52-1,0.76c-0.69,0.47-1.44,0.88-2.21,1.2
			c-0.78,0.32-1.59,0.57-2.42,0.73c-0.83,0.16-1.67,0.24-2.51,0.24H212.7c-0.85,0-1.69-0.07-2.52-0.23
			c-0.83-0.16-1.65-0.4-2.43-0.72c-0.78-0.32-1.53-0.73-2.23-1.21c-0.35-0.24-0.68-0.49-1.01-0.77c-0.32-0.27-0.63-0.56-0.93-0.86
			c-0.29-0.3-0.57-0.61-0.84-0.93c-0.27-0.32-0.52-0.66-0.75-1c-0.47-0.7-0.87-1.44-1.18-2.21c-0.32-0.78-0.56-1.59-0.71-2.41
			c-0.16-0.82-0.23-1.66-0.23-2.5v-5.1c-0.32,0.26-0.65,0.51-0.99,0.75c-0.7,0.48-1.45,0.89-2.24,1.21
			c-0.78,0.32-1.6,0.57-2.44,0.73c-0.83,0.16-1.68,0.23-2.52,0.23c-7.6,0.02-15.19,0.04-22.79,0.05v14.96h-16.93v-52.6h39.71
			c0.85,0,1.7,0.07,2.53,0.23c0.83,0.16,1.65,0.4,2.44,0.73c0.79,0.32,1.54,0.73,2.24,1.21c0.35,0.24,0.69,0.5,1.02,0.77
			c0.33,0.27,0.64,0.56,0.94,0.86c0.3,0.3,0.58,0.61,0.85,0.93c0.27,0.32,0.53,0.66,0.76,1.01c0.48,0.7,0.88,1.44,1.21,2.22
			c0.07,0.16,0.13,0.32,0.19,0.48h12.88v27.3h10.98v-22.85v-4.45h4.44h12.42h40.8h36.64v-11.54h16.93v38.85h3.92v-14.46
			c0-0.84,0.07-1.68,0.23-2.51c0.16-0.83,0.4-1.64,0.72-2.42c0.32-0.78,0.73-1.52,1.21-2.22c0.24-0.35,0.49-0.68,0.76-1
			c0.27-0.32,0.55-0.63,0.85-0.93c0.3-0.3,0.6-0.58,0.93-0.85c0.32-0.27,0.66-0.52,1-0.76c0.7-0.47,1.44-0.88,2.21-1.2
			c0.78-0.32,1.59-0.57,2.42-0.73c0.83-0.16,1.67-0.24,2.51-0.24h19.03c0.84,0,1.68,0.07,2.51,0.23c0.83,0.16,1.64,0.4,2.42,0.72
			c0.78,0.32,1.52,0.73,2.22,1.2c0.35,0.24,0.68,0.49,1,0.76c0.32,0.27,0.63,0.56,0.93,0.85c0.29,0.3,0.58,0.6,0.85,0.93
			c0.27,0.32,0.52,0.66,0.76,1c0.05,0.07,0.09,0.14,0.14,0.21c0.05-0.07,0.09-0.14,0.14-0.21c0.24-0.35,0.49-0.68,0.76-1
			c0.27-0.32,0.56-0.63,0.85-0.93c0.3-0.3,0.6-0.58,0.93-0.85c0.32-0.27,0.66-0.52,1-0.76c0.69-0.47,1.44-0.88,2.21-1.2
			c0.78-0.32,1.59-0.57,2.42-0.73c0.83-0.16,1.67-0.24,2.51-0.24h19.03c0.85,0,1.69,0.07,2.52,0.23c0.83,0.16,1.65,0.4,2.43,0.72
			c0.78,0.32,1.53,0.73,2.23,1.21c0.35,0.24,0.68,0.49,1.01,0.77c0.32,0.27,0.63,0.56,0.93,0.86c0.29,0.3,0.57,0.61,0.84,0.93
			c0.27,0.32,0.52,0.66,0.75,1.01c0.47,0.7,0.87,1.44,1.19,2.21c0.32,0.78,0.56,1.58,0.71,2.41c0.16,0.82,0.23,1.66,0.23,2.49v5.97
			h-2.51c0.13,0.18,0.26,0.35,0.38,0.54c0.47,0.7,0.87,1.44,1.18,2.21c0.32,0.78,0.56,1.58,0.71,2.41c0.16,0.82,0.23,1.66,0.23,2.5
			v4.86c0,0.84-0.07,1.67-0.23,2.5c-0.16,0.82-0.39,1.63-0.71,2.41c-0.32,0.78-0.72,1.52-1.18,2.21c-0.47,0.69-1,1.34-1.59,1.94
			c-0.59,0.6-1.24,1.14-1.94,1.62c-0.7,0.48-1.45,0.88-2.23,1.21c-0.78,0.32-1.6,0.57-2.43,0.72c-0.83,0.16-1.68,0.23-2.53,0.23
			h-19.03c-0.84,0-1.68-0.07-2.51-0.23c-0.83-0.16-1.64-0.4-2.42-0.72c-0.78-0.32-1.52-0.73-2.22-1.21c-0.35-0.24-0.68-0.49-1-0.76
			c-0.22-0.19-0.44-0.38-0.65-0.58v3.5h-31.87c-0.84,0-1.68-0.07-2.51-0.23c-0.83-0.16-1.64-0.4-2.42-0.72
			c-0.78-0.32-1.52-0.73-2.22-1.21c-0.35-0.24-0.68-0.49-1-0.76c-0.32-0.27-0.63-0.55-0.93-0.85c-0.07-0.07-0.14-0.14-0.21-0.22
			v3.99h-11.56c-0.84,0-1.68-0.07-2.51-0.23c-0.83-0.16-1.64-0.4-2.42-0.72c-0.78-0.32-1.52-0.73-2.22-1.21
			c-0.59-0.4-1.14-0.85-1.66-1.34v3.49h-40.68h-44.72V254.66z"/>
		<path d="M156.4,210.12h35.26c2.35,0,4.36,0.83,6.02,2.49c1.67,1.67,2.49,3.65,2.49,5.96v11.79c0,2.31-0.83,4.3-2.49,5.95
			c-1.66,1.67-3.67,2.49-6.02,2.49c-9.02,0.02-18.04,0.04-27.06,0.06c-0.06-0.02-0.12-0.04-0.18-0.06v15.02h-8.03V210.12z
			 M192.09,230.37v-11.79c0-0.28-0.14-0.43-0.43-0.43h-26.82c-0.28,0-0.43,0.14-0.43,0.43v11.79c0,0.28,0.14,0.43,0.43,0.43h26.82
			C191.95,230.8,192.09,230.66,192.09,230.37"/>
		<path d="M355.28,226.96c0-0.28,0.14-0.43,0.43-0.43h19.03c0.28,0,0.43,0.14,0.43,0.43v5.23h-19.88V226.96z M355.71,218.57
			c-2.31,0-4.29,0.83-5.93,2.47c-1.65,1.64-2.47,3.61-2.47,5.93v18.49c0,2.31,0.83,4.29,2.47,5.93c1.64,1.65,3.61,2.47,5.93,2.47
			h27.42v-7.97h-27.42c-0.28,0-0.43-0.14-0.43-0.43v-5.23h27.85v-13.25c0-2.31-0.83-4.29-2.47-5.93c-1.64-1.65-3.61-2.47-5.93-2.47
			H355.71z"/>
		<path d="M423.81,226.96v1.52h-7.97v-1.52c0-0.28-0.14-0.43-0.43-0.43h-19.03c-0.28,0-0.43,0.14-0.43,0.43v4.87
			c0,0.24,0.14,0.36,0.43,0.36h19.03c2.35,0,4.33,0.82,5.95,2.47c1.62,1.64,2.43,3.61,2.43,5.93v4.86c0,2.31-0.81,4.29-2.43,5.93
			c-1.62,1.64-3.6,2.47-5.95,2.47h-19.03c-2.31,0-4.29-0.82-5.93-2.47c-1.64-1.64-2.46-3.61-2.46-5.93v-1.52h7.97v1.52
			c0,0.28,0.14,0.43,0.43,0.43h19.03c0.28,0,0.43-0.14,0.43-0.43v-4.86c0-0.24-0.14-0.37-0.43-0.37h-19.03
			c-2.31,0-4.29-0.82-5.93-2.47c-1.64-1.64-2.46-3.61-2.46-5.93v-4.87c0-2.31,0.82-4.29,2.46-5.93c1.64-1.64,3.61-2.47,5.93-2.47
			h19.03c2.35,0,4.33,0.82,5.95,2.47C423,222.68,423.81,224.66,423.81,226.96"/>
		<path d="M326.46,207.03h8.03v38.42c0,0.28,0.12,0.43,0.36,0.43h7.11v7.97h-7.11c-2.31,0-4.29-0.82-5.93-2.47
			c-1.64-1.65-2.47-3.61-2.47-5.93V207.03z"/>
		<polygon points="285.78,226.54 285.78,218.57 321.6,218.57 321.6,227.27 297.52,245.87 321.6,245.87 321.6,253.84 285.78,253.84 
			285.78,245.14 309.86,226.54 		"/>
		<polygon points="245.11,226.54 245.11,218.57 280.92,218.57 280.92,227.27 256.85,245.87 280.92,245.87 280.92,253.84 
			245.11,253.84 245.11,245.14 269.18,226.54 		"/>
		<path d="M232.16,218.57h7.97v26.87c0,2.31-0.82,4.29-2.47,5.93c-1.64,1.64-3.62,2.47-5.93,2.47H212.7c-2.35,0-4.33-0.82-5.95-2.47
			c-1.62-1.64-2.43-3.61-2.43-5.93v-26.87h7.97v26.87c0,0.28,0.14,0.43,0.43,0.43h19.03c0.28,0,0.43-0.14,0.43-0.43L232.16,218.57
			L232.16,218.57z"/>
		<path class="st0" d="M0,245.39v-26.87c0-0.85,0.07-1.69,0.23-2.52c0.16-0.83,0.4-1.65,0.72-2.43c0.32-0.78,0.73-1.53,1.2-2.23
			c0.47-0.7,1.02-1.35,1.62-1.95c0.6-0.6,1.25-1.14,1.95-1.61c0.7-0.47,1.45-0.88,2.23-1.2c0.78-0.32,1.6-0.56,2.43-0.72
			c0.83-0.16,1.68-0.23,2.53-0.23h26.82c0.85,0,1.69,0.07,2.52,0.23c0.83,0.16,1.65,0.4,2.43,0.72c0.78,0.32,1.54,0.72,2.24,1.2
			c0.35,0.24,0.69,0.49,1.02,0.76c0.32,0.27,0.64,0.55,0.94,0.85c0.3,0.3,0.59,0.61,0.86,0.93c0.27,0.33,0.53,0.66,0.77,1.01
			c0.48,0.7,0.89,1.45,1.22,2.24c0.33,0.79,0.57,1.6,0.73,2.44c0.16,0.83,0.23,1.68,0.23,2.53v0.8c0.13-0.17,0.26-0.34,0.4-0.51
			c0.27-0.32,0.55-0.63,0.85-0.93c0.3-0.29,0.6-0.58,0.93-0.85c0.32-0.27,0.65-0.52,1-0.75c0.69-0.47,1.44-0.88,2.21-1.2
			c0.78-0.32,1.59-0.57,2.42-0.73c0.83-0.16,1.67-0.24,2.51-0.24h19.03c0.84,0,1.68,0.08,2.51,0.23c0.83,0.16,1.64,0.4,2.42,0.72
			c0.78,0.32,1.52,0.73,2.22,1.21c0.35,0.24,0.68,0.49,1.01,0.76c0.32,0.27,0.63,0.56,0.93,0.85c0.3,0.3,0.58,0.6,0.85,0.93
			c0.27,0.32,0.52,0.66,0.76,1c0.05,0.07,0.09,0.14,0.14,0.21c0.05-0.07,0.09-0.14,0.14-0.21c0.24-0.35,0.49-0.68,0.76-1
			c0.27-0.32,0.56-0.63,0.85-0.93c0.3-0.29,0.6-0.58,0.93-0.85c0.32-0.27,0.65-0.52,1-0.75c0.69-0.47,1.44-0.88,2.21-1.2
			c0.78-0.32,1.59-0.57,2.42-0.73c0.83-0.16,1.67-0.24,2.51-0.24h19.03c0.84,0,1.68,0.08,2.51,0.23c0.83,0.16,1.64,0.4,2.42,0.72
			c0.78,0.32,1.52,0.73,2.22,1.21c0.35,0.24,0.68,0.49,1,0.76c0.32,0.27,0.63,0.56,0.93,0.85c0.3,0.3,0.58,0.6,0.85,0.93
			c0.27,0.32,0.52,0.66,0.76,1c0.47,0.69,0.88,1.44,1.2,2.21c0.32,0.78,0.57,1.59,0.73,2.42c0.16,0.83,0.23,1.67,0.23,2.51v18.49
			c0,0.84-0.07,1.68-0.23,2.51c-0.16,0.83-0.4,1.64-0.72,2.42c-0.32,0.78-0.73,1.52-1.21,2.22c-0.24,0.35-0.49,0.68-0.76,1
			c-0.27,0.32-0.55,0.63-0.85,0.93c-0.3,0.29-0.61,0.58-0.93,0.85c-0.32,0.27-0.66,0.52-1,0.76c-0.7,0.47-1.44,0.88-2.21,1.2
			c-0.78,0.32-1.59,0.57-2.42,0.73c-0.83,0.16-1.67,0.23-2.51,0.23h-19.03c-0.84,0-1.68-0.07-2.51-0.23
			c-0.83-0.16-1.64-0.4-2.42-0.72c-0.78-0.32-1.53-0.73-2.22-1.21c-0.59-0.4-1.14-0.85-1.66-1.34v3.5H63.01
			c-0.84,0-1.68-0.07-2.51-0.23c-0.83-0.16-1.64-0.4-2.42-0.72c-0.78-0.32-1.52-0.73-2.22-1.21c-0.7-0.47-1.34-1.02-1.94-1.62
			c-0.59-0.59-1.13-1.24-1.6-1.93c-0.34-0.5-0.64-1.02-0.91-1.56c-0.27,0.54-0.57,1.07-0.91,1.57c-0.24,0.35-0.5,0.69-0.77,1.01
			c-0.27,0.33-0.56,0.64-0.87,0.94c-0.3,0.3-0.62,0.58-0.94,0.85c-0.33,0.27-0.66,0.52-1.01,0.75c-0.7,0.47-1.45,0.87-2.23,1.19
			c-0.78,0.32-1.6,0.56-2.43,0.72c-0.83,0.16-1.68,0.23-2.53,0.23H12.91c-0.84,0-1.69-0.07-2.52-0.23c-0.83-0.16-1.65-0.4-2.43-0.72
			c-0.78-0.32-1.53-0.73-2.23-1.2c-0.7-0.47-1.35-1.02-1.95-1.62c-0.6-0.6-1.14-1.25-1.61-1.95c-0.47-0.7-0.88-1.45-1.2-2.23
			c-0.32-0.78-0.56-1.6-0.72-2.43C0.07,247.08,0,246.24,0,245.39"/>
		<path class="st1" d="M0,245.39v-26.87c0-0.85,0.07-1.69,0.23-2.52c0.16-0.83,0.4-1.65,0.72-2.43c0.32-0.78,0.73-1.53,1.2-2.23
			c0.47-0.7,1.02-1.35,1.62-1.95c0.6-0.6,1.25-1.14,1.95-1.61c0.7-0.47,1.45-0.88,2.23-1.2c0.78-0.32,1.6-0.56,2.43-0.72
			c0.83-0.16,1.68-0.23,2.53-0.23h26.82c0.85,0,1.69,0.07,2.52,0.23c0.83,0.16,1.65,0.4,2.43,0.72c0.78,0.32,1.54,0.72,2.24,1.2
			c0.35,0.24,0.69,0.49,1.02,0.76c0.32,0.27,0.64,0.55,0.94,0.85c0.3,0.3,0.59,0.61,0.86,0.93c0.27,0.33,0.53,0.66,0.77,1.01
			c0.48,0.7,0.89,1.45,1.22,2.24c0.33,0.79,0.57,1.6,0.73,2.44c0.16,0.83,0.23,1.68,0.23,2.53v0.8c0.13-0.17,0.26-0.34,0.4-0.51
			c0.27-0.32,0.55-0.63,0.85-0.93c0.3-0.29,0.6-0.58,0.93-0.85c0.32-0.27,0.65-0.52,1-0.75c0.69-0.47,1.44-0.88,2.21-1.2
			c0.78-0.32,1.59-0.57,2.42-0.73c0.83-0.16,1.67-0.24,2.51-0.24h19.03c0.84,0,1.68,0.08,2.51,0.23c0.83,0.16,1.64,0.4,2.42,0.72
			c0.78,0.32,1.52,0.73,2.22,1.21c0.35,0.24,0.68,0.49,1.01,0.76c0.32,0.27,0.63,0.56,0.93,0.85c0.3,0.3,0.58,0.6,0.85,0.93
			c0.27,0.32,0.52,0.66,0.76,1c0.05,0.07,0.09,0.14,0.14,0.21c0.05-0.07,0.09-0.14,0.14-0.21c0.24-0.35,0.49-0.68,0.76-1
			c0.27-0.32,0.56-0.63,0.85-0.93c0.3-0.29,0.6-0.58,0.93-0.85c0.32-0.27,0.65-0.52,1-0.75c0.69-0.47,1.44-0.88,2.21-1.2
			c0.78-0.32,1.59-0.57,2.42-0.73c0.83-0.16,1.67-0.24,2.51-0.24h19.03c0.84,0,1.68,0.08,2.51,0.23c0.83,0.16,1.64,0.4,2.42,0.72
			c0.78,0.32,1.52,0.73,2.22,1.21c0.35,0.24,0.68,0.49,1,0.76c0.32,0.27,0.63,0.56,0.93,0.85c0.3,0.3,0.58,0.6,0.85,0.93
			c0.27,0.32,0.52,0.66,0.76,1c0.47,0.69,0.88,1.44,1.2,2.21c0.32,0.78,0.57,1.59,0.73,2.42c0.16,0.83,0.23,1.67,0.23,2.51v18.49
			c0,0.84-0.07,1.68-0.23,2.51c-0.16,0.83-0.4,1.64-0.72,2.42c-0.32,0.78-0.73,1.52-1.21,2.22c-0.24,0.35-0.49,0.68-0.76,1
			c-0.27,0.32-0.55,0.63-0.85,0.93c-0.3,0.29-0.61,0.58-0.93,0.85c-0.32,0.27-0.66,0.52-1,0.76c-0.7,0.47-1.44,0.88-2.21,1.2
			c-0.78,0.32-1.59,0.57-2.42,0.73c-0.83,0.16-1.67,0.23-2.51,0.23h-19.03c-0.84,0-1.68-0.07-2.51-0.23
			c-0.83-0.16-1.64-0.4-2.42-0.72c-0.78-0.32-1.53-0.73-2.22-1.21c-0.59-0.4-1.14-0.85-1.66-1.34v3.5H63.01
			c-0.84,0-1.68-0.07-2.51-0.23c-0.83-0.16-1.64-0.4-2.42-0.72c-0.78-0.32-1.52-0.73-2.22-1.21c-0.7-0.47-1.34-1.02-1.94-1.62
			c-0.59-0.59-1.13-1.24-1.6-1.93c-0.34-0.5-0.64-1.02-0.91-1.56c-0.27,0.54-0.57,1.07-0.91,1.57c-0.24,0.35-0.5,0.69-0.77,1.01
			c-0.27,0.33-0.56,0.64-0.87,0.94c-0.3,0.3-0.62,0.58-0.94,0.85c-0.33,0.27-0.66,0.52-1.01,0.75c-0.7,0.47-1.45,0.87-2.23,1.19
			c-0.78,0.32-1.6,0.56-2.43,0.72c-0.83,0.16-1.68,0.23-2.53,0.23H12.91c-0.84,0-1.69-0.07-2.52-0.23c-0.83-0.16-1.65-0.4-2.43-0.72
			c-0.78-0.32-1.53-0.73-2.23-1.2c-0.7-0.47-1.35-1.02-1.95-1.62c-0.6-0.6-1.14-1.25-1.61-1.95c-0.47-0.7-0.88-1.45-1.2-2.23
			c-0.32-0.78-0.56-1.6-0.72-2.43C0.07,247.08,0,246.24,0,245.39z"/>
		<path d="M62.58,226.96c0-0.28,0.14-0.43,0.43-0.43h19.03c0.28,0,0.43,0.14,0.43,0.43v5.23H62.58V226.96z M63.01,218.57
			c-2.31,0-4.29,0.83-5.93,2.47c-1.65,1.64-2.47,3.61-2.47,5.93v18.49c0,2.31,0.83,4.28,2.47,5.93c1.64,1.65,3.61,2.47,5.93,2.47
			h27.42v-7.97H63.01c-0.28,0-0.43-0.14-0.43-0.43v-5.23h27.85v-13.25c0-2.31-0.83-4.29-2.47-5.93c-1.64-1.65-3.61-2.47-5.93-2.47
			H63.01z"/>
		<path d="M48.23,245.39c0,2.35-0.83,4.34-2.49,5.99c-1.66,1.64-3.67,2.47-6.02,2.47H12.91c-2.35,0-4.34-0.82-5.99-2.47
			c-1.64-1.64-2.47-3.64-2.47-5.99v-26.87c0-2.35,0.82-4.34,2.47-5.99c1.64-1.64,3.64-2.47,5.99-2.47h26.82
			c2.35,0,4.36,0.82,6.02,2.47c1.66,1.64,2.49,3.64,2.49,5.99v3.41h-8.09v-3.41c0-0.28-0.14-0.43-0.43-0.43H12.91
			c-0.28,0-0.43,0.14-0.43,0.43v26.87c0,0.28,0.14,0.43,0.43,0.43h26.82c0.28,0,0.43-0.14,0.43-0.43v-8.27h-9.92h-9.67v-8.03h9.67
			h18V245.39z"/>
		<path d="M123.14,226.96v18.49c0,0.28-0.14,0.43-0.43,0.43h-19.03c-0.28,0-0.43-0.14-0.43-0.43v-18.49c0-0.28,0.14-0.43,0.43-0.43
			h19.03C123,226.54,123.14,226.68,123.14,226.96 M97.76,221.04c-1.65,1.64-2.47,3.61-2.47,5.93v18.49c0,2.31,0.83,4.28,2.47,5.93
			c1.64,1.65,3.61,2.47,5.93,2.47h19.03c2.31,0,4.29-0.83,5.93-2.47c1.65-1.64,2.47-3.61,2.47-5.93v-18.49
			c0-2.31-0.83-4.29-2.47-5.93c-1.64-1.65-3.61-2.47-5.93-2.47h-19.03C101.37,218.57,99.39,219.4,97.76,221.04"/>
	</g>
</g>
</svg>
